<?xml version="1.0"?>
<svg width="132" height="40" xmlns="http://www.w3.org/2000/svg" xmlns:svg="http://www.w3.org/2000/svg">
 <defs>
  <clipPath id="clip0_201_378">
   <rect fill="white" height="40" id="svg_1" width="132"/>
  </clipPath>
 </defs>
 <g class="layer">
  <title>Layer 1</title>
  <g clip-path="url(#clip0_201_378)" id="svg_2">
   <path d="m6.51,31.91l13.61,0c0.07,0 0.14,-0.02 0.2,-0.07c0.05,-0.04 0.09,-0.11 0.11,-0.18l4.34,-19.59c0.01,-0.05 0.01,-0.1 0,-0.15c-0.02,-0.04 -0.04,-0.09 -0.07,-0.13c-0.03,-0.03 -0.07,-0.06 -0.11,-0.08c-0.04,-0.03 -0.09,-0.04 -0.14,-0.04l-22.37,0c-0.05,0 -0.1,0.01 -0.14,0.03c-0.05,0.02 -0.08,0.05 -0.11,0.09c-0.04,0.04 -0.06,0.08 -0.07,0.13c-0.01,0.05 -0.01,0.1 0,0.14l4.42,19.6c0.02,0.07 0.06,0.14 0.11,0.18c0.06,0.05 0.13,0.07 0.21,0.07l0.01,0zm-1.76,-18.11l4.5,0c0.08,0 0.17,0.04 0.23,0.1c0.06,0.06 0.09,0.14 0.09,0.23l0,15.33c0,0.08 -0.03,0.17 -0.09,0.23c-0.06,0.06 -0.15,0.09 -0.23,0.09l-1.05,0c-0.07,0 -0.14,-0.02 -0.2,-0.07c-0.05,-0.05 -0.09,-0.11 -0.11,-0.18l-3.46,-15.33c-0.01,-0.05 -0.01,-0.1 0,-0.15c0.01,-0.04 0.03,-0.09 0.06,-0.13c0.03,-0.03 0.07,-0.06 0.11,-0.09c0.05,-0.02 0.09,-0.03 0.14,-0.03m13.66,15.98l-6.38,0c-0.09,0 -0.17,-0.03 -0.23,-0.09c-0.06,-0.06 -0.1,-0.15 -0.1,-0.23l0,-15.33c0,-0.09 0.04,-0.17 0.1,-0.23c0.06,-0.06 0.14,-0.1 0.23,-0.1l9.77,0.01c0.05,0 0.09,0.01 0.14,0.03c0.04,0.02 0.08,0.05 0.11,0.09c0.03,0.04 0.05,0.08 0.06,0.13c0.01,0.04 0.01,0.09 0,0.14l-3.4,15.33c-0.01,0.07 -0.05,0.13 -0.11,0.18c-0.06,0.05 -0.13,0.07 -0.2,0.07" fill="#0090bc" id="svg_3"/>
   <path d="m19.61,33.34l-12.65,0c-0.05,0 -0.09,0.01 -0.14,0.03c-0.04,0.03 -0.08,0.06 -0.12,0.1c-0.03,0.04 -0.05,0.08 -0.06,0.13c-0.01,0.05 -0.01,0.1 0,0.15l0.43,1.95c0.01,0.07 0.06,0.14 0.11,0.18c0.06,0.05 0.14,0.08 0.21,0.08l11.78,0c0.07,0 0.15,-0.03 0.21,-0.08c0.06,-0.04 0.1,-0.11 0.11,-0.18l0.43,-1.95c0.01,-0.05 0.01,-0.1 0,-0.15c-0.01,-0.05 -0.03,-0.09 -0.06,-0.13c-0.03,-0.04 -0.07,-0.07 -0.12,-0.1c-0.04,-0.02 -0.09,-0.03 -0.14,-0.03l0.01,0z" fill="#ff7f00" id="svg_4"/>
   <path d="m15.07,38.29c0,0.34 -0.1,0.67 -0.28,0.95c-0.19,0.28 -0.45,0.5 -0.77,0.63c-0.31,0.13 -0.65,0.16 -0.99,0.1c-0.32,-0.07 -0.62,-0.23 -0.87,-0.47c-0.24,-0.24 -0.4,-0.54 -0.46,-0.87c-0.07,-0.33 -0.03,-0.68 0.09,-0.99c0.13,-0.31 0.35,-0.58 0.63,-0.76c0.27,-0.19 0.6,-0.29 0.94,-0.29c0.45,0 0.89,0.18 1.21,0.5c0.31,0.32 0.49,0.75 0.49,1.2l0.01,0z" fill="#ff7f00" id="svg_5"/>
   <path d="m24.96,10.32l-23.36,0c-0.06,0 -0.12,-0.02 -0.17,-0.06c-0.05,-0.04 -0.09,-0.09 -0.1,-0.15l-1.32,-5.76c-0.01,-0.04 -0.01,-0.09 0,-0.13c0.01,-0.05 0.03,-0.09 0.06,-0.12c0.03,-0.04 0.06,-0.07 0.1,-0.08c0.05,-0.02 0.09,-0.03 0.14,-0.02l6.5,0.55c0.06,0 0.13,-0.02 0.18,-0.06l6.21,-4.44c0.05,-0.03 0.1,-0.05 0.16,-0.05c0.06,0 0.12,0.02 0.17,0.05l6.23,4.44c0.06,0.04 0.12,0.06 0.19,0.05l6.24,-0.54c0.05,-0.01 0.09,0 0.14,0.02c0.04,0.02 0.07,0.04 0.1,0.08c0.03,0.03 0.05,0.07 0.06,0.12c0.01,0.04 0.01,0.09 0,0.13l-1.26,5.75c-0.02,0.06 -0.05,0.12 -0.1,0.16c-0.05,0.04 -0.11,0.06 -0.17,0.06m-21.58,-2.15l19.87,0c0.06,0 0.12,-0.02 0.17,-0.06c0.05,-0.04 0.08,-0.09 0.1,-0.15l0.25,-1.21c0.01,-0.05 0.02,-0.09 0.01,-0.14c-0.01,-0.04 -0.03,-0.08 -0.06,-0.12c-0.03,-0.03 -0.07,-0.06 -0.11,-0.08c-0.04,-0.01 -0.09,-0.02 -0.13,-0.02l-4.13,0.36c-0.06,0 -0.13,-0.02 -0.19,-0.06l-5.62,-4c-0.05,-0.04 -0.11,-0.06 -0.16,-0.06c-0.06,0 -0.12,0.02 -0.17,0.06l-5.6,4.01c-0.05,0.04 -0.12,0.06 -0.19,0.05l-4.32,-0.36c-0.04,0 -0.09,0.01 -0.13,0.02c-0.04,0.02 -0.08,0.05 -0.11,0.08c-0.03,0.04 -0.05,0.08 -0.06,0.12c-0.01,0.05 -0.01,0.09 0,0.14l0.32,1.21c0.01,0.06 0.05,0.11 0.1,0.15c0.05,0.04 0.11,0.06 0.17,0.06" fill="#ff7f00" id="svg_6" transform="matrix(1 0 0 1 0 0)"/>
   <path d="m36.09,6.31c1.52,-1.49 3.49,-2.23 5.89,-2.23c2.42,0 4.38,0.75 5.91,2.24c1.52,1.5 2.29,3.42 2.29,5.78c0,2.36 -0.77,4.28 -2.29,5.78c-1.53,1.49 -3.5,2.24 -5.91,2.24c-2.41,0 -4.37,-0.75 -5.89,-2.23c-1.52,-1.49 -2.28,-3.42 -2.28,-5.79c0,-2.37 0.76,-4.3 2.28,-5.79m1.07,5.79c-0.02,0.66 0.08,1.32 0.31,1.94c0.23,0.62 0.58,1.19 1.04,1.67c0.44,0.47 0.99,0.83 1.59,1.07c0.59,0.25 1.24,0.36 1.88,0.33c0.65,0.03 1.3,-0.08 1.89,-0.32c0.6,-0.24 1.15,-0.6 1.6,-1.07c0.45,-0.48 0.82,-1.05 1.05,-1.67c0.23,-0.62 0.33,-1.29 0.31,-1.95c0.02,-0.67 -0.08,-1.33 -0.31,-1.95c-0.23,-0.63 -0.59,-1.2 -1.05,-1.68c-0.94,-0.9 -2.19,-1.41 -3.49,-1.41c-1.3,0 -2.55,0.51 -3.49,1.41c-0.45,0.48 -0.81,1.05 -1.04,1.68c-0.23,0.62 -0.33,1.29 -0.31,1.95l0.02,0z" fill="#0090bc" id="svg_7"/>
   <path d="m52.6,19.83l0,-15.46l3.26,0l0,6.09l2.29,0l4.36,-6.09l4.04,0l-5.62,7.55l6.15,7.91l-4.1,0l-4.85,-6.54l-2.27,0l0,6.54l-3.26,0z" fill="#0090bc" id="svg_8"/>
   <path d="m72.17,19.83l-3.26,0l0,-15.46l3.26,0l0,6.23l8.84,0l0,-6.23l3.26,0l0,15.46l-3.26,0l0,-6.43l-8.84,0l0,6.43z" fill="#0090bc" id="svg_9"/>
   <path d="m85.99,19.83l7.79,-15.46l1.5,0l7.78,15.46l-3.64,0l-1.19,-2.54l-7.41,0l-1.19,2.54l-3.65,0l0.01,0zm8.53,-10.36l-2.36,5.02l4.72,0l-2.36,-5.02z" fill="#0090bc" id="svg_10"/>
   <path d="m36.23,35.94l0,-12.02l11.53,0l0,12.02l-2.11,0l0,-10.18l-7.32,0l0,10.18l-2.11,0l0.01,0z" fill="#0090bc" id="svg_11"/>
   <path d="m53.96,27.49c0.59,-0.02 1.18,0.09 1.71,0.33c0.54,0.24 1.02,0.6 1.39,1.06c0.74,0.93 1.04,2.14 0.91,3.62l-6.15,0c0.19,0.58 0.6,1.06 1.14,1.35c0.64,0.35 1.37,0.52 2.1,0.49c0.91,0.04 1.8,-0.23 2.54,-0.77l0,1.8c-0.87,0.53 -1.86,0.79 -2.88,0.77c-1.51,0 -2.71,-0.4 -3.62,-1.2c-0.44,-0.4 -0.8,-0.89 -1.03,-1.44c-0.23,-0.55 -0.34,-1.15 -0.32,-1.75c-0.02,-0.56 0.07,-1.12 0.27,-1.65c0.2,-0.53 0.5,-1.01 0.9,-1.41c0.39,-0.4 0.87,-0.71 1.4,-0.92c0.52,-0.2 1.08,-0.3 1.64,-0.28m-2.19,3.42l4.24,0c-0.01,-0.24 -0.08,-0.47 -0.18,-0.68c-0.11,-0.22 -0.26,-0.4 -0.44,-0.56c-0.4,-0.31 -0.9,-0.48 -1.41,-0.46c-0.51,-0.01 -1.01,0.15 -1.41,0.46c-0.4,0.32 -0.68,0.75 -0.8,1.24" fill="#0090bc" id="svg_12"/>
   <path d="m61.89,29.42l-2.91,0l0,-1.72l7.83,0l0,1.72l-2.91,0l0,6.52l-2.01,0l0,-6.52z" fill="#0090bc" id="svg_13"/>
   <path d="m71.9,27.49c0.59,-0.02 1.18,0.09 1.72,0.33c0.53,0.24 1.01,0.6 1.38,1.06c0.74,0.93 1.04,2.14 0.91,3.62l-6.15,0c0.19,0.58 0.6,1.06 1.14,1.35c0.64,0.35 1.37,0.52 2.1,0.49c0.91,0.04 1.8,-0.23 2.54,-0.77l0,1.8c-0.87,0.53 -1.86,0.79 -2.88,0.77c-1.5,0 -2.71,-0.4 -3.61,-1.2c-0.45,-0.4 -0.81,-0.89 -1.04,-1.44c-0.23,-0.55 -0.34,-1.15 -0.32,-1.75c-0.02,-0.56 0.07,-1.12 0.27,-1.65c0.2,-0.53 0.5,-1.01 0.9,-1.41c0.39,-0.4 0.88,-0.71 1.4,-0.92c0.52,-0.2 1.08,-0.3 1.64,-0.28m-2.19,3.42l4.24,0c-0.01,-0.24 -0.07,-0.47 -0.18,-0.68c-0.11,-0.22 -0.26,-0.4 -0.44,-0.56c-0.39,-0.31 -0.9,-0.48 -1.41,-0.46c-0.51,-0.01 -1.01,0.15 -1.41,0.46c-0.39,0.32 -0.68,0.75 -0.8,1.24z" fill="#0090bc" id="svg_14"/>
   <path d="m77.85,39.37l0,-11.67l1.76,0l0.07,0.41c0.65,-0.38 1.4,-0.57 2.16,-0.56c0.55,-0.02 1.11,0.07 1.63,0.28c0.51,0.2 0.99,0.51 1.37,0.91c0.39,0.41 0.7,0.89 0.89,1.42c0.2,0.53 0.29,1.09 0.27,1.66c0.02,0.56 -0.07,1.13 -0.26,1.65c-0.2,0.53 -0.5,1.01 -0.9,1.42c-0.38,0.39 -0.86,0.7 -1.37,0.91c-0.51,0.2 -1.06,0.3 -1.61,0.28c-0.71,0.01 -1.41,-0.16 -2.03,-0.5l0,3.79l-1.98,0l0,0zm1.98,-5.6c0.46,0.39 1.05,0.59 1.64,0.57c0.33,0.01 0.67,-0.04 0.97,-0.17c0.3,-0.12 0.58,-0.3 0.82,-0.54c0.23,-0.24 0.41,-0.52 0.52,-0.83c0.12,-0.32 0.17,-0.65 0.16,-0.98c0.01,-0.34 -0.04,-0.67 -0.16,-0.99c-0.11,-0.31 -0.29,-0.6 -0.52,-0.84c-0.23,-0.24 -0.5,-0.42 -0.82,-0.55c-0.3,-0.12 -0.63,-0.18 -0.97,-0.16c-0.59,-0.03 -1.18,0.17 -1.64,0.56l0,3.93z" fill="#0090bc" id="svg_15"/>
   <path d="m91.92,23.77l3.75,-0.39l0,1.88l-3.48,0.4c-0.68,0.05 -1.3,0.34 -1.78,0.81c-0.47,0.58 -0.76,1.29 -0.8,2.04c0.6,-0.63 1.46,-0.95 2.57,-0.95c0.55,-0.02 1.11,0.08 1.63,0.28c0.52,0.21 0.99,0.52 1.39,0.91c0.76,0.85 1.18,1.96 1.17,3.1c-0.01,1.14 -0.44,2.24 -1.22,3.08c-0.4,0.4 -0.89,0.72 -1.42,0.93c-0.53,0.2 -1.1,0.3 -1.67,0.28c-0.65,0.03 -1.3,-0.11 -1.88,-0.4c-0.58,-0.29 -1.09,-0.72 -1.46,-1.25c-0.8,-1.11 -1.2,-2.65 -1.2,-4.65c0,-3.75 1.47,-5.77 4.4,-6.07zm-2.38,6.78c0.01,0.98 0.28,1.93 0.77,2.78c0.18,0.3 0.44,0.55 0.76,0.72c0.31,0.18 0.65,0.26 1.01,0.26c0.3,0 0.6,-0.05 0.89,-0.18c0.27,-0.12 0.52,-0.3 0.73,-0.53c0.42,-0.52 0.64,-1.17 0.63,-1.84c-0.02,-0.67 -0.27,-1.32 -0.72,-1.82c-0.24,-0.24 -0.52,-0.42 -0.85,-0.55c-0.31,-0.12 -0.65,-0.18 -0.99,-0.16c-0.46,-0.03 -0.92,0.09 -1.31,0.32c-0.4,0.24 -0.72,0.58 -0.92,1" fill="#0090bc" id="svg_16"/>
   <path d="m100.64,34.94l-3.67,-7.24l2.11,0l2.54,5.15l2.53,-5.15l2.11,0l-5.88,11.67l-2.16,0l2.43,-4.43l-0.01,0z" fill="#0090bc" id="svg_17"/>
   <path d="m107.61,39.37l0,-11.67l1.76,0l0.06,0.41c0.67,-0.38 1.41,-0.57 2.17,-0.56c0.55,-0.02 1.11,0.07 1.62,0.28c0.52,0.2 0.99,0.51 1.38,0.91c0.38,0.41 0.69,0.89 0.89,1.42c0.2,0.53 0.29,1.09 0.27,1.66c0.02,0.56 -0.07,1.13 -0.27,1.65c-0.2,0.53 -0.49,1.01 -0.89,1.42c-0.39,0.39 -0.86,0.7 -1.37,0.91c-0.51,0.2 -1.07,0.3 -1.62,0.28c-0.71,0.01 -1.4,-0.16 -2.02,-0.5l0,3.79l-1.98,0l0,0zm1.98,-5.6c0.45,0.39 1.05,0.59 1.64,0.57c0.33,0.01 0.65,-0.04 0.97,-0.17c0.3,-0.12 0.58,-0.3 0.82,-0.54c0.22,-0.24 0.4,-0.52 0.52,-0.83c0.12,-0.32 0.17,-0.65 0.16,-0.98c0.01,-0.34 -0.04,-0.67 -0.16,-0.99c-0.12,-0.31 -0.3,-0.6 -0.52,-0.84c-0.23,-0.24 -0.51,-0.42 -0.82,-0.55c-0.31,-0.12 -0.63,-0.18 -0.97,-0.16c-0.59,-0.03 -1.19,0.17 -1.64,0.56l0,3.93z" fill="#0090bc" id="svg_18"/>
   <path d="m117.65,35.94l0,-8.24l6,0l0,1.72l-4.01,0l0,6.52l-1.98,0l-0.01,0z" fill="#0090bc" id="svg_19"/>
   <path d="m127.95,36.07c-0.87,0.05 -1.72,-0.19 -2.44,-0.68c-0.28,-0.23 -0.51,-0.53 -0.67,-0.86c-0.15,-0.33 -0.23,-0.7 -0.22,-1.06c0.01,-0.37 0.1,-0.73 0.26,-1.06c0.17,-0.32 0.41,-0.61 0.71,-0.82c0.8,-0.51 1.72,-0.75 2.66,-0.7c0.59,0.01 1.19,0.07 1.76,0.17l0,-0.26c0,-1 -0.75,-1.5 -2.24,-1.5c-0.88,-0.05 -1.74,0.2 -2.47,0.7l0,-1.77c0.87,-0.49 1.86,-0.74 2.86,-0.7c1.22,0 2.17,0.26 2.84,0.8c0.33,0.26 0.6,0.61 0.78,1c0.18,0.39 0.26,0.82 0.23,1.25l0,3.26c0,0.5 0.32,0.74 0.98,0.74l0,1.29c-0.43,0.18 -0.91,0.23 -1.36,0.15c-0.46,-0.09 -0.89,-0.31 -1.22,-0.63c-0.74,0.47 -1.59,0.71 -2.47,0.68m0.74,-3.57c-0.51,-0.02 -1.03,0.07 -1.51,0.27c-0.15,0.06 -0.28,0.16 -0.38,0.29c-0.1,0.13 -0.15,0.29 -0.16,0.46c0,0.14 0.04,0.28 0.12,0.39c0.08,0.12 0.19,0.21 0.32,0.27c0.38,0.17 0.81,0.25 1.22,0.23c0.63,0.03 1.25,-0.18 1.73,-0.6l0,-1.17c-0.44,-0.08 -0.9,-0.13 -1.34,-0.14" fill="#0090bc" id="svg_20"/>
  </g>
 </g>
</svg>